#!OML:ASF F:\VICON\USERDATA\INSTALL\rory3\rory3.ASF
:FULLY-SPECIFIED
:DEGREES
410
root 3.37047 15.8146 -25.8369 11.2903 -13.8939 -0.389634
lowerback 6.6367 -1.59166 -2.1397
upperback -1.23678 -2.25189 1.08604
thorax -4.88135 -1.03781 2.56958
lowerneck -13.3297 0.520236 0.844205
upperneck 18.3556 0.299362 0.981139
head 7.86917 0.284468 0.214164
rclavicle 2.20962e-014 6.5102e-015
rhumerus -30.0126 -10.3465 -56.3037
rradius 71.3338
rwrist -88.7321
rhand -7.86232 8.77301
rfingers 7.12502
rthumb 18.0413 -20.4103
lclavicle 2.20962e-014 6.5102e-015
lhumerus -2.83048 -30.4808 65.9217
lradius 80.1436
lwrist 59.18
lhand 16.4867 16.4354
lfingers 7.12502
lthumb 41.2492 41.2721
rfemur -67.0282 12.5246 7.16361
rtibia 40.4604
rfoot -8.59701 -38.9476
rtoes 45.8472
lfemur -30.9345 7.70895 -31.8478
ltibia 48.7747
lfoot -31.896 21.745
ltoes -14.6091
411
root 3.34106 15.7283 -25.7751 11.3837 -13.4907 0.285009
lowerback 6.12208 -1.62821 -2.42341
upperback -0.665681 -2.32747 0.612268
thorax -3.99979 -1.09494 2.21166
lowerneck -14.332 0.473609 1.47605
upperneck 17.7775 0.0830839 1.01361
head 7.8585 0.229545 0.0987821
rclavicle -2.7159e-014 -9.93923e-015
rhumerus -29.3114 -10.2621 -57.9785
rradius 71.546
rwrist -88.1819
rhand -5.30511 7.52622
rfingers 7.12502
rthumb 20.5002 -21.4115
lclavicle -2.7159e-014 -9.93923e-015
lhumerus -1.282 -34.1647 65.0649
lradius 80.4667
lwrist 57.9887
lhand 17.6819 17.2995
lfingers 7.12502
lthumb 42.3698 41.7644
rfemur -67.6815 11.8581 6.35735
rtibia 40.5017
rfoot -10.1557 -39.1763
rtoes 46.8579
lfemur -31.2446 7.864 -32.5589
ltibia 49.3822
lfoot -32.6392 21.4426
ltoes -15.0983
412
root 3.31037 15.6529 -25.711 11.7097 -13.0998 0.838429
lowerback 6.14495 -1.80526 -2.93251
upperback -0.787936 -2.60643 0.557794
thorax -4.10518 -1.21923 2.46962
lowerneck -14.6253 0.594523 1.57239
upperneck 17.4707 0.243604 0.929863
head 7.80954 0.303273 0.0729923
rclavicle -6.45305e-014 -1.56046e-014
rhumerus -28.9997 -8.9034 -59.0766
rradius 71.6428
rwrist -87.8199
rhand -2.68893 6.23187
rfingers 7.12502
rthumb 23.0125 -22.4143
lclavicle -6.45305e-014 -1.56046e-014
lhumerus -1.27895 -37.7268 65.2796
lradius 80.5856
lwrist 55.2301
lhand 18.2478 17.0435
lfingers 7.12502
lthumb 42.8994 41.3249
rfemur -68.4912 11.1897 5.67603
rtibia 40.6207
rfoot -8.51711 -39.6127
rtoes 45.5398
lfemur -31.6284 8.09834 -33.157
ltibia 49.7943
lfoot -33.3811 20.7477
ltoes -14.6912
413
root 3.27907 15.6068 -25.6484 11.9438 -12.8033 1.03744
lowerback 6.2732 -2.05849 -3.21601
upperback -1.00736 -2.96657 0.726545
thorax -4.36082 -1.38103 2.84781
lowerneck -14.1762 0.775816 1.41094
upperneck 16.984 0.580138 0.748572
head 7.56975 0.431152 0.0733713
rclavicle -6.09027e-014 1.47101e-014
rhumerus -28.5593 -6.98724 -60.0684
rradius 71.5544
rwrist -87.6256
rhand -2.23699 6.5275
rfingers 7.12502
rthumb 23.4461 -22.064
lclavicle -6.09027e-014 1.47101e-014
lhumerus -1.9735 -39.5209 66.1217
lradius 80.5858
lwrist 54.1537
lhand 23.4777 20.7671
lfingers 7.12502
lthumb 47.76 43.0912
rfemur -69.018 10.8995 5.29666
rtibia 40.7551
rfoot -8.26597 -39.256
rtoes 45.9915
lfemur -31.7574 8.48969 -33.3398
ltibia 50.0369
lfoot -33.8752 20.2237
ltoes -14.7731
414
root 3.25454 15.5763 -25.574 12.089 -12.5994 1.50595
lowerback 6.11422 -2.12394 -3.51778
upperback -0.901228 -3.07556 0.587944
thorax -4.14516 -1.4358 2.87204
lowerneck -14.3978 0.865764 1.72343
upperneck 16.3887 0.684056 0.503203
head 7.41588 0.47517 -0.047865
rclavicle -6.93262e-015 1.31198e-014
rhumerus -27.9842 -5.74654 -61.081
rradius 71.5009
rwrist -87.3251
rhand -2.10039 7.14774
rfingers 7.12502
rthumb 23.5771 -21.427
lclavicle -6.93262e-015 1.31198e-014
lhumerus -0.631849 -41.6545 65.56
lradius 80.2695
lwrist 54.6838
lhand 24.51 23.3175
lfingers 7.12502
lthumb 48.7109 45.1917
rfemur -69.3251 10.2958 5.01047
rtibia 40.8593
rfoot -6.92177 -38.8081
rtoes 45.8032
lfemur -31.7684 8.80234 -33.8391
ltibia 50.1446
lfoot -33.9844 20.3588
ltoes -16.3682
415
root 3.22994 15.5489 -25.4955 12.3721 -12.3959 1.70759
lowerback 5.5419 -2.22434 -3.49962
upperback -0.694684 -3.18597 0.501151
thorax -3.60559 -1.50764 2.74692
lowerneck -14.1071 1.07262 1.78959
upperneck 15.3684 0.966671 0.518489
head 7.03461 0.61023 -0.0284288
rclavicle -3.38928e-014 -2.19657e-014
rhumerus -27.0996 -4.55283 -62.0224
rradius 71.0742
rwrist -86.8657
rhand 0.420624 6.09451
rfingers 7.12502
rthumb 25.9932 -22.1477
lclavicle -3.38928e-014 -2.19657e-014
lhumerus 0.853693 -45.8276 64.6151
lradius 79.5204
lwrist 49.4168
lhand 22.0582 19.6331
lfingers 7.12502
lthumb 46.4474 42.539
rfemur -69.5446 9.54858 5.3081
rtibia 40.8258
rfoot -2.97613 -38.5325
rtoes 42.9841
lfemur -31.9142 9.23163 -34.0737
ltibia 50.2661
lfoot -33.9698 20.3221
ltoes -17.8384
416
root 3.19974 15.5265 -25.4207 12.7667 -12.1934 1.69566
lowerback 5.34446 -2.39358 -3.34723
upperback -0.93356 -3.39564 0.588719
thorax -3.73064 -1.6085 2.76586
lowerneck -13.1516 1.30355 1.38579
upperneck 14.5323 1.34565 0.789759
head 6.59679 0.787579 0.153051
rclavicle 2.72087e-014 -1.98785e-015
rhumerus -26.4735 -3.03455 -62.7305
rradius 70.2654
rwrist -86.0192
rhand 2.95843 5.53871
rfingers 7.12502
rthumb 28.4208 -22.3232
lclavicle 2.72087e-014 -1.98785e-015
lhumerus 1.64095 -47.8643 64.4088
lradius 78.6395
lwrist 46.0385
lhand 25.1364 21.1237
lfingers 7.12502
lthumb 49.2863 42.7132
rfemur -69.7521 9.23061 5.5322
rtibia 40.6645
rfoot -1.60387 -38.3505
rtoes 41.2695
lfemur -32.1447 9.60197 -34.0586
ltibia 50.3918
lfoot -33.9849 20.0893
ltoes -18.679
417
root 3.17268 15.5214 -25.3467 13.2445 -11.9674 1.49213
lowerback 5.30779 -2.42088 -2.83656
upperback -0.963216 -3.39662 0.598611
thorax -3.76873 -1.61892 2.49013
lowerneck -14.1199 1.40751 1.67516
upperneck 14.5969 1.45594 0.512171
head 6.78913 0.83472 0.0346462
rclavicle 6.15984e-014 -2.54444e-014
rhumerus -25.4127 -2.28734 -63.3304
rradius 69.2899
rwrist -84.6996
rhand 4.89751 4.91114
rfingers 7.12502
rthumb 30.2722 -22.6265
lclavicle 6.15984e-014 -2.54444e-014
lhumerus 3.88267 -50.3942 63.1252
lradius 77.4317
lwrist 40.571
lhand 28.1838 21.8826
lfingers 7.12502
lthumb 52.0669 41.9484
rfemur -69.893 9.08111 5.86274
rtibia 40.4634
rfoot -1.04708 -38.2427
rtoes 39.8294
lfemur -32.3501 9.67242 -33.7953
ltibia 50.4516
lfoot -34.2142 19.6826
ltoes -18.5672
418
root 3.14905 15.5394 -25.2613 13.4598 -11.9176 0.960044
lowerback 4.86963 -2.41276 -1.98626
upperback -0.560392 -3.31427 0.643985
thorax -3.15443 -1.60925 2.02082
lowerneck -14.8501 1.56039 2.14314
upperneck 14.2093 1.64289 -0.0365998
head 6.7993 0.901022 -0.19601
rclavicle -2.44257e-014 1.05356e-014
rhumerus -25.2075 0.412692 -63.8171
rradius 70.4541
rwrist -84.066
rhand 4.12159 5.21912
rfingers 7.12502
rthumb 29.5318 -22.4519
lclavicle -2.44257e-014 1.05356e-014
lhumerus 7.31541 -52.2659 60.8619
lradius 75.8498
lwrist 36.0226
lhand 33.1669 22.9019
lfingers 7.12502
lthumb 56.5294 39.8734
rfemur -69.6251 9.4098 6.44524
rtibia 40.3813
rfoot -2.34688 -38.0203
rtoes 40.3476
lfemur -32.0021 9.8048 -33.1448
ltibia 50.247
lfoot -34.4569 19.4573
ltoes -18.2955
419
root 3.13098 15.5708 -25.1634 13.7837 -11.6655 0.709316
lowerback 4.89165 -2.5349 -1.48799
upperback -0.839435 -3.44027 0.922969
thorax -3.46113 -1.67244 2.04929
lowerneck -14.6923 1.75286 1.74345
upperneck 14.0111 2.02231 -0.187016
head 6.70918 1.04832 -0.143191
rclavicle 3.75579e-014 2.39536e-014
rhumerus -23.2389 -0.0452711 -63.9311
rradius 67.003
rwrist -79.5914
rhand 8.4861 5.10403
rfingers 7.12502
rthumb 33.6891 -21.7482
lclavicle 3.75579e-014 2.39536e-014
lhumerus 9.33351 -54.4296 59.8652
lradius 74.3523
lwrist 31.1035
lhand 31.8849 23.9389
lfingers 7.12502
lthumb 55.3931 41.7893
rfemur -69.3554 8.93117 7.26739
rtibia 40.4064
rfoot -0.821435 -37.1977
rtoes 38.7844
lfemur -31.5789 9.46721 -32.7751
ltibia 49.8132
lfoot -34.5663 19.4418
ltoes -18.2611
420
root 3.12131 15.6072 -25.044 14.0122 -11.5777 1.17463
lowerback 4.72767 -2.56801 -1.5699
upperback -1.07061 -3.48809 0.947379
thorax -3.59961 -1.69096 2.12264
lowerneck -14.75 1.86774 1.33673
upperneck 13.8362 2.28511 -0.296228
head 6.66128 1.1435 -0.0861634
rclavicle 8.97389e-014 -3.926e-015
rhumerus -22.4597 0.825926 -63.5445
rradius 65.5792
rwrist -75.6698
rhand 12.0612 4.65561
rfingers 7.12502
rthumb 37.0786 -21.3885
lclavicle 8.97389e-014 -3.926e-015
lhumerus 12.287 -56.7165 57.9865
lradius 72.6664
lwrist 25.5475
lhand 31.6454 24.6137
lfingers 7.12502
lthumb 55.1799 42.6215
rfemur -69.0581 7.79738 7.86267
rtibia 40.5515
rfoot 2.56776 -35.4963
rtoes 35.5481
lfemur -30.872 8.94232 -33.2368
ltibia 49.0618
lfoot -34.6984 19.7308
ltoes -18.5006
421
root 3.09083 15.6404 -24.9543 14.4059 -11.7121 0.996369
lowerback 4.50299 -2.59839 -1.28256
upperback -1.29908 -3.50371 1.12969
thorax -3.71448 -1.7004 2.14709
lowerneck -14.0128 2.06055 1.42997
upperneck 13.0274 2.64689 -0.998223
head 6.29075 1.26698 -0.301969
rclavicle -9.49197e-015 1.0138e-014
rhumerus -21.5518 1.55671 -63.1921
rradius 64.0729
rwrist -71.0073
rhand 16.4253 4.06562
rfingers 7.12502
rthumb 41.1915 -20.7896
lclavicle -9.49197e-015 1.0138e-014
lhumerus 15.2726 -58.4465 55.8143
lradius 70.7761
lwrist 20.1848
lhand 34.297 25.5511
lfingers 7.12502
lthumb 57.5231 41.6929
rfemur -69.0321 8.28635 8.02882
rtibia 40.6888
rfoot 2.54153 -35.1765
rtoes 35.0925
lfemur -30.5831 8.58153 -32.9334
ltibia 48.3335
lfoot -34.391 20.1397
ltoes -18.83
422
root 3.06279 15.6944 -24.85 14.7274 -11.9233 0.615202
lowerback 4.30374 -2.62654 -0.682232
upperback -1.4966 -3.49866 1.31024
thorax -3.83125 -1.70777 1.99425
lowerneck -12.7215 2.18888 1.94024
upperneck 11.4371 2.90226 -2.23499
head 5.59963 1.33132 -0.772133
rclavicle -4.4155e-014 -9.93923e-016
rhumerus -20.6664 2.30223 -62.7736
rradius 62.6538
rwrist -65.9595
rhand 20.5048 3.52945
rfingers 7.12502
rthumb 45.005 -19.9681
lclavicle -4.4155e-014 -9.93923e-016
lhumerus 18.5512 -60.1282 53.0463
lradius 68.9231
lwrist 15.0106
lhand 36.5227 26.2351
lfingers 7.12502
lthumb 59.4555 40.5745
rfemur -68.729 8.33284 9.08096
rtibia 40.8815
rfoot 5.01768 -34.0403
rtoes 30.9423
lfemur -30.0173 8.21233 -32.4048
ltibia 47.491
lfoot -34.0106 20.6246
ltoes -19.2476
423
root 3.03559 15.7556 -24.7368 15.2626 -11.9252 0.63583
lowerback 3.83259 -2.72342 -0.537296
upperback -1.70768 -3.61159 1.55134
thorax -3.77332 -1.7651 2.15094
lowerneck -13.158 2.55526 1.65067
upperneck 11.514 3.49892 -2.59756
head 5.71176 1.57754 -0.782268
rclavicle 4.96962e-015 2.3059e-014
rhumerus -19.5442 3.11461 -61.9346
rradius 61.1219
rwrist -60.6741
rhand 24.0665 3.01654
rfingers 7.12502
rthumb 48.3027 -19.0538
lclavicle 4.96962e-015 2.3059e-014
lhumerus 22.2967 -61.3319 49.8906
lradius 66.868
lwrist 9.31896
lhand 38.1984 25.7498
lfingers 7.12502
lthumb 60.8857 38.5655
rfemur -68.5398 7.49131 10.1978
rtibia 41.0894
rfoot 7.45962 -32.5206
rtoes 27.662
lfemur -29.6776 7.60954 -32.3021
ltibia 46.6782
lfoot -33.5472 20.8421
ltoes -19.4471
424
root 3.00347 15.8182 -24.6282 15.8951 -11.6853 0.812232
lowerback 3.02564 -2.8797 -0.265502
upperback -1.79251 -3.81038 1.53481
thorax -3.41678 -1.87502 1.95112
lowerneck -12.9203 2.78755 1.08012
upperneck 10.9343 3.88314 -2.41946
head 5.4834 1.76048 -0.606715
rclavicle 1.03815e-013 -5.96354e-016
rhumerus -18.4397 3.57279 -61.2626
rradius 59.3438
rwrist -55.768
rhand 27.3601 2.77624
rfingers 7.12502
rthumb 51.3187 -17.7256
lclavicle 1.03815e-013 -5.96354e-016
lhumerus 25.991 -61.6942 46.5594
lradius 64.4244
lwrist 2.78924
lhand 41.5344 23.3916
lfingers 7.12502
lthumb 63.6542 32.661
rfemur -68.4623 6.36777 11.2283
rtibia 41.431
rfoot 8.44515 -31.3705
rtoes 26.4926
lfemur -29.4084 6.84834 -32.3079
ltibia 45.8018
lfoot -32.6952 21.2246
ltoes -20.7583
